<svg width="40" height="48" viewBox="0 0 40 48" fill="none" xmlns="http://www.w3.org/2000/svg">
<g clip-path="url(#clip0_255_1198)">
<path d="M39.9499 3.54873C39.8349 0 36.1999 0 36.1999 0C36.1999 0 3.70282 0.0175535 3.55247 0.0614372C-0.0737111 1.08832 0.150346 3.83544 0.150346 3.83544C0.150346 3.83544 -0.141518 33.1995 0.0913834 34.5745C0.129709 34.9431 0.0206286 36.6897 0.978765 37.4913C5.39209 41.1892 16.9575 46.8795 19.0035 47.7952C20.0354 48.2574 21.4269 47.7952 21.4269 47.7952C21.7335 47.7952 37.1993 38.9804 38.3962 37.9887C40.0059 36.6517 39.9558 35.0894 39.9558 35.0894C39.9558 35.0894 40.0678 7.10038 39.9558 3.55165L39.9499 3.54873ZM35.8314 36.0432C34.8025 36.8974 21.4888 44.4864 21.2235 44.4864C21.2235 44.4864 20.0265 44.8843 19.1391 44.4864C17.3762 43.6994 7.42334 38.802 3.62322 35.616C2.79775 34.9256 2.89209 33.4189 2.85966 33.1029C2.66214 31.921 2.91273 6.64107 2.91273 6.64107C2.91273 6.64107 2.7211 4.2772 5.84315 3.39367C5.97287 3.35564 33.9475 3.34101 33.9475 3.34101C33.9475 3.34101 37.0755 3.34101 37.1757 6.39532C37.2759 9.44963 37.1757 33.5476 37.1757 33.5476C37.1757 33.5476 37.217 34.8934 35.8343 36.0432H35.8314Z" fill="#76BB20"/>
<path d="M27.6239 29.0978C25.5278 34.8788 20.1829 34.7822 20.1829 34.7822C20.1829 34.7822 14.5019 34.9548 12.4913 29.2295C11.9046 26.9417 8.66166 27.4741 9.9323 30.3939C10.6752 32.3774 12.1935 36.403 20.0532 37.1841C20.2006 37.1988 20.3539 37.1958 20.5013 37.1783C27.5443 36.3006 29.3692 32.3774 30.1121 30.3939C31.3798 27.4741 28.2106 26.81 27.6239 29.0978Z" fill="#76BB20"/>
<path d="M10.448 9.32089H12.4557C13.6379 9.32089 14.6078 9.72754 14.6078 11.0441C14.6078 12.3606 13.6379 12.8608 12.4557 12.8608H11.7068V14.8502H10.448V9.31796V9.32089ZM12.3525 11.8691C13.0158 11.8691 13.3725 11.5882 13.3725 11.0441C13.3725 10.4999 13.0158 10.3156 12.3525 10.3156H11.7068V11.872H12.3525V11.8691ZM12.2257 12.5332L13.0984 11.7345L14.8761 14.8561H13.4669L12.2257 12.5361V12.5332Z" fill="#76BB20"/>
<path d="M15.7693 12.2904V9.32089H17.0281V12.4162C17.0281 13.4986 17.3731 13.8731 17.9951 13.8731C18.6172 13.8731 18.9827 13.4986 18.9827 12.4162V9.32089H20.1974V12.2904C20.1974 14.1481 19.4368 14.9556 17.9951 14.9556C16.5535 14.9556 15.7664 14.1481 15.7664 12.2904H15.7693Z" fill="#76BB20"/>
<path d="M22.6885 10.3712H21.1555V9.32382H25.4833V10.3712H23.9503V14.8532H22.6915V10.3712H22.6885Z" fill="#76BB20"/>
<path d="M27.1579 9.32089H28.6644L30.4156 14.8532H29.083L28.3549 12.0534C28.1986 11.5004 28.0512 10.8451 27.9008 10.2688H27.8655C27.7299 10.8539 27.5824 11.5004 27.4262 12.0534L26.6951 14.8532H25.4067L27.1579 9.32089ZM26.5594 12.5624H29.2422V13.5337H26.5594V12.5624Z" fill="#76BB20"/>
<path d="M7.4292 17.2199H8.76175L9.43392 19.7974C9.59901 20.403 9.71104 20.9618 9.88203 21.5703H9.91741C10.0854 20.9588 10.2063 20.4 10.3626 19.7974L11.02 17.2199H12.3083L10.6279 22.7522H9.11552L7.43215 17.2199H7.4292Z" fill="#76BB20"/>
<path d="M12.9451 17.22H16.4386V18.2673H14.2069V19.379H16.1084V20.4264H14.2069V21.702H16.5241V22.7493H12.9451V17.217V17.22Z" fill="#76BB20"/>
<path d="M17.7417 17.22H19.7494C20.9316 17.22 21.9015 17.6266 21.9015 18.9431C21.9015 20.2596 20.9316 20.7599 19.7494 20.7599H19.0035V22.7493H17.7446V17.217L17.7417 17.22ZM19.6462 19.7681C20.3095 19.7681 20.6662 19.4873 20.6662 18.9431C20.6662 18.399 20.3095 18.2147 19.6462 18.2147H19.0005V19.7711H19.6462V19.7681ZM19.5194 20.4323L20.3921 19.6336L22.1698 22.7552H20.7606L19.5194 20.4352V20.4323Z" fill="#76BB20"/>
<path d="M23.0925 17.2199H24.6668C26.3679 17.2199 27.4646 18.0596 27.4646 19.9612C27.4646 21.8628 26.3679 22.7522 24.7376 22.7522H23.0925V17.2199ZM24.5931 21.7458C25.5395 21.7458 26.1763 21.2865 26.1763 19.9641C26.1763 18.6418 25.5365 18.2293 24.5931 18.2293H24.3543V21.7458H24.5931Z" fill="#76BB20"/>
<path d="M28.6321 17.22H32.1256V18.2673H29.8939V19.379H31.7954V20.4264H29.8939V21.702H32.2111V22.7493H28.6321V17.217V17.22Z" fill="#76BB20"/>
</g>
<defs>
<clipPath id="clip0_255_1198">
<rect width="40" height="48" fill="white"/>
</clipPath>
</defs>
</svg>
