<svg width="133" height="16" viewBox="0 0 133 16" fill="none" xmlns="http://www.w3.org/2000/svg">
<g clip-path="url(#clip0_255_1199)">
<path d="M0 0H5.73683C9.1149 0 11.8864 1.15532 11.8864 4.89558C11.8864 8.63584 9.1149 10.0571 5.73683 10.0571H3.5971V15.7091H0V0ZM5.44198 7.23948C7.33741 7.23948 8.35673 6.44156 8.35673 4.89558C8.35673 3.34961 7.33741 2.82597 5.44198 2.82597H3.5971V7.24779H5.44198V7.23948ZM5.07974 9.12623L7.57328 6.85714L12.653 15.7257H8.6263L5.07974 9.13455V9.12623Z" fill="#76BB20"/>
<path d="M15.2054 8.43636V0H18.8025V8.79377C18.8025 11.8691 19.7882 12.933 21.5657 12.933C23.3431 12.933 24.3877 11.8691 24.3877 8.79377V0H27.8585V8.43636C27.8585 13.7143 25.685 16.0083 21.5657 16.0083C17.4463 16.0083 15.197 13.7143 15.197 8.43636H15.2054Z" fill="#76BB20"/>
<path d="M34.9684 2.9839H30.5879V0H42.9545V2.97558H38.574V15.7091H34.9769V2.9839H34.9684Z" fill="#76BB20"/>
<path d="M47.7395 0H52.0442L57.0482 15.7174H53.2405L51.1597 7.76312C50.7132 6.19221 50.292 4.33039 49.8624 2.69299H49.7613C49.3738 4.35532 48.9526 6.19221 48.5061 7.76312L46.4169 15.7174H42.7356L47.7395 0ZM46.0379 9.20935H53.7038V11.9688H46.0379V9.20935Z" fill="#76BB20"/>
<path d="M62.1868 0H65.9945L67.9152 7.3226C68.3869 9.04312 68.707 10.6306 69.1956 12.3595H69.2967C69.7769 10.6223 70.1223 9.03481 70.5688 7.3226L72.4473 0H76.1287L71.3269 15.7174H67.0054L62.1868 0Z" fill="#76BB20"/>
<path d="M77.9485 0H87.9311V2.97558H81.554V6.13403H86.9876V9.10961H81.554V12.7335H88.1754V15.7091H77.9485V0Z" fill="#76BB20"/>
<path d="M91.646 0H97.3828C100.761 0 103.532 1.15532 103.532 4.89558C103.532 8.63584 100.761 10.0571 97.3828 10.0571H95.2515V15.7091H91.6544V0H91.646ZM97.0964 7.23948C98.9918 7.23948 100.011 6.44156 100.011 4.89558C100.011 3.34961 98.9918 2.82597 97.0964 2.82597H95.2515V7.24779H97.0964V7.23948ZM96.7257 9.12623L99.2193 6.85714L104.299 15.7257H100.272L96.7257 9.13455V9.12623Z" fill="#76BB20"/>
<path d="M106.944 0H111.443C116.303 0 119.437 2.38545 119.437 7.78805C119.437 13.1906 116.303 15.7174 111.645 15.7174H106.944V0ZM111.224 12.8499C113.928 12.8499 115.747 11.5449 115.747 7.78805C115.747 4.03117 113.919 2.85922 111.224 2.85922H110.541V12.8499H111.224Z" fill="#76BB20"/>
<path d="M122.773 0H132.756V2.97558H126.379V6.13403H131.812V9.10961H126.379V12.7335H133V15.7091H122.773V0Z" fill="#76BB20"/>
</g>
<defs>
<clipPath id="clip0_255_1199">
<rect width="133" height="16" fill="white"/>
</clipPath>
</defs>
</svg>
